<svg xmlns="http://www.w3.org/2000/svg" version="1.1" xmlns:xlink="http://www.w3.org/1999/xlink" xmlns:svgjs="http://svgjs.dev/svgjs" width="1920" height="1080" preserveAspectRatio="none" viewBox="0 0 1920 1080"><g mask="url(&quot;#SvgjsMask1482&quot;)" fill="none"><rect width="1920" height="1080" x="0" y="0" fill="url(&quot;#SvgjsLinearGradient1483&quot;)"></rect><path d="M1818.37 374.28L1881.48 374.28L1881.48 431.76L1818.37 431.76z" stroke="rgba(217, 114, 0, 1)" data-darkreader-inline-stroke="" style="--darkreader-inline-stroke: #ff9f34;"></path><path d="M1819.91 448.88L1837.27 448.88L1837.27 466.24L1819.91 466.24z" stroke="rgba(251, 214, 0, 1)" data-darkreader-inline-stroke="" style="--darkreader-inline-stroke: #ffde1c;"></path><path d="M741.46 255.94L811.84 255.94L811.84 331.23L741.46 331.23z" stroke="rgba(251, 214, 0, 1)" data-darkreader-inline-stroke="" style="--darkreader-inline-stroke: #ffde1c;"></path><path d="M317.89 898.14L346.71 898.14L346.71 926.96L317.89 926.96z" stroke="rgba(217, 114, 0, 1)" data-darkreader-inline-stroke="" style="--darkreader-inline-stroke: #ff9f34;"></path><path d="M1214.18 683.68L1279.73 683.68L1279.73 731.28L1214.18 731.28z" stroke="rgba(217, 114, 0, 1)" data-darkreader-inline-stroke="" style="--darkreader-inline-stroke: #ff9f34;"></path><path d="M1914.39 962.51L1976.07 962.51L1976.07 965.78L1914.39 965.78z" stroke="rgba(251, 214, 0, 1)" data-darkreader-inline-stroke="" style="--darkreader-inline-stroke: #ffde1c;"></path><path d="M425.36 922.75a31.78 31.78 0 1 0-63.53-2.02z" stroke="rgba(217, 114, 0, 1)" data-darkreader-inline-stroke="" style="--darkreader-inline-stroke: #ff9f34;"></path><path d="M591.08 223.9L691.11 223.9L691.11 251.76L591.08 251.76z" fill="rgba(251, 214, 0, 1)" data-darkreader-inline-fill="" style="--darkreader-inline-fill: #c9ab00;"></path><path d="M1137.16 994.4L1206.34 994.4L1206.34 1063.58L1137.16 1063.58z" stroke="rgba(251, 214, 0, 1)" data-darkreader-inline-stroke="" style="--darkreader-inline-stroke: #ffde1c;"></path><path d="M406.21 372.87L507.15 372.87L507.15 382.74L406.21 382.74z" fill="rgba(251, 214, 0, 1)" data-darkreader-inline-fill="" style="--darkreader-inline-fill: #c9ab00;"></path><path d="M1704.16 768.71a41.92 41.92 0 1 0-17.71 81.94z" fill="rgba(251, 214, 0, 1)" data-darkreader-inline-fill="" style="--darkreader-inline-fill: #c9ab00;"></path><path d="M946.35 116.62 a44.2 44.2 0 1 0 88.4 0 a44.2 44.2 0 1 0 -88.4 0z" stroke="rgba(217, 114, 0, 1)" data-darkreader-inline-stroke="" style="--darkreader-inline-stroke: #ff9f34;"></path><path d="M1372.56 669.8a43.36 43.36 0 1 0 55.24 66.84z" fill="rgba(217, 114, 0, 1)" data-darkreader-inline-fill="" style="--darkreader-inline-fill: #ae5b00;"></path><path d="M411.99 242.16 a74.08 74.08 0 1 0 148.16 0 a74.08 74.08 0 1 0 -148.16 0z" stroke="rgba(251, 214, 0, 1)" data-darkreader-inline-stroke="" style="--darkreader-inline-stroke: #ffde1c;"></path><path d="M1432.4 90.3L1445.81 90.3L1445.81 103.71L1432.4 103.71z" stroke="rgba(217, 114, 0, 1)" data-darkreader-inline-stroke="" style="--darkreader-inline-stroke: #ff9f34;"></path><path d="M1890.84 518.47L1984.42 518.47L1984.42 538.28L1890.84 538.28z" stroke="rgba(251, 214, 0, 1)" data-darkreader-inline-stroke="" style="--darkreader-inline-stroke: #ffde1c;"></path><path d="M1503.92 367.72L1510.77 367.72L1510.77 427.98L1503.92 427.98z" fill="rgba(217, 114, 0, 1)" data-darkreader-inline-fill="" style="--darkreader-inline-fill: #ae5b00;"></path><path d="M298.32 676.93L384.08 676.93L384.08 714.09L298.32 714.09z" stroke="rgba(217, 114, 0, 1)" data-darkreader-inline-stroke="" style="--darkreader-inline-stroke: #ff9f34;"></path><path d="M1353.11 726.96L1356.14 726.96L1356.14 729.99L1353.11 729.99z" stroke="rgba(251, 214, 0, 1)" data-darkreader-inline-stroke="" style="--darkreader-inline-stroke: #ffde1c;"></path><path d="M1384.16 311.37 a98.8 98.8 0 1 0 197.6 0 a98.8 98.8 0 1 0 -197.6 0z" fill="rgba(217, 114, 0, 1)" data-darkreader-inline-fill="" style="--darkreader-inline-fill: #ae5b00;"></path><path d="M1733.12 1064.46L1750.48 1064.46L1750.48 1108.67L1733.12 1108.67z" stroke="rgba(251, 214, 0, 1)" data-darkreader-inline-stroke="" style="--darkreader-inline-stroke: #ffde1c;"></path><path d="M1810.82 152.87L1902.41 152.87L1902.41 244.46L1810.82 244.46z" fill="rgba(251, 214, 0, 1)" data-darkreader-inline-fill="" style="--darkreader-inline-fill: #c9ab00;"></path><path d="M729.78 568.84L816.52 568.84L816.52 668.7L729.78 668.7z" fill="rgba(251, 214, 0, 1)" data-darkreader-inline-fill="" style="--darkreader-inline-fill: #c9ab00;"></path></g><defs><mask id="SvgjsMask1482"><rect width="1920" height="1080" fill="#ffffff" data-darkreader-inline-fill="" style="--darkreader-inline-fill: #181a1b;"></rect></mask><linearGradient x1="10.94%" y1="-19.44%" x2="89.06%" y2="119.44%" gradientUnits="userSpaceOnUse" id="SvgjsLinearGradient1483"><stop stop-color="#0e2a47" offset="0" data-darkreader-inline-stopcolor="" style="--darkreader-inline-stopcolor: #0b2239;"></stop><stop stop-color="rgba(5, 0, 34, 1)" offset="0.35" data-darkreader-inline-stopcolor="" style="--darkreader-inline-stopcolor: #04001b;"></stop><stop stop-color="rgba(10, 0, 73, 1)" offset="1" data-darkreader-inline-stopcolor="" style="--darkreader-inline-stopcolor: #08003a;"></stop></linearGradient></defs></svg>