<svg xmlns="http://www.w3.org/2000/svg" preserveAspectRatio="none" viewBox="0 0 1920 1080"><g mask="url(&quot;#a&quot;)" fill="none"><path fill="url(&quot;#b&quot;)" d="M0 0h1920v1080H0z"/><path d="M1818.37 374.28h63.11v57.48h-63.11z" stroke="rgba(217, 114, 0, 1)" style="--darkreader-inline-stroke:#ff9f34"/><path d="M1819.91 448.88h17.36v17.36h-17.36zM741.46 255.94h70.38v75.29h-70.38z" stroke="rgba(251, 214, 0, 1)" style="--darkreader-inline-stroke:#ffde1c"/><path d="M317.89 898.14h28.82v28.82h-28.82zM1214.18 683.68h65.55v47.6h-65.55z" stroke="rgba(217, 114, 0, 1)" style="--darkreader-inline-stroke:#ff9f34"/><path d="M1914.39 962.51h61.68v3.27h-61.68z" stroke="rgba(251, 214, 0, 1)" style="--darkreader-inline-stroke:#ffde1c"/><path d="M425.36 922.75a31.78 31.78 0 1 0-63.53-2.02z" stroke="rgba(217, 114, 0, 1)" style="--darkreader-inline-stroke:#ff9f34"/><path d="M591.08 223.9h100.03v27.86H591.08z" fill="rgba(251, 214, 0, 1)" style="--darkreader-inline-fill:#c9ab00"/><path d="M1137.16 994.4h69.18v69.18h-69.18z" stroke="rgba(251, 214, 0, 1)" style="--darkreader-inline-stroke:#ffde1c"/><path d="M406.21 372.87h100.94v9.87H406.21zM1704.16 768.71a41.92 41.92 0 1 0-17.71 81.94z" fill="rgba(251, 214, 0, 1)" style="--darkreader-inline-fill:#c9ab00"/><path d="M946.35 116.62a44.2 44.2 0 1 0 88.4 0 44.2 44.2 0 1 0-88.4 0z" stroke="rgba(217, 114, 0, 1)" style="--darkreader-inline-stroke:#ff9f34"/><path d="M1372.56 669.8a43.36 43.36 0 1 0 55.24 66.84z" fill="rgba(217, 114, 0, 1)" style="--darkreader-inline-fill:#ae5b00"/><path d="M411.99 242.16a74.08 74.08 0 1 0 148.16 0 74.08 74.08 0 1 0-148.16 0z" stroke="rgba(251, 214, 0, 1)" style="--darkreader-inline-stroke:#ffde1c"/><path d="M1432.4 90.3h13.41v13.41h-13.41z" stroke="rgba(217, 114, 0, 1)" style="--darkreader-inline-stroke:#ff9f34"/><path d="M1890.84 518.47h93.58v19.81h-93.58z" stroke="rgba(251, 214, 0, 1)" style="--darkreader-inline-stroke:#ffde1c"/><path d="M1503.92 367.72h6.85v60.26h-6.85z" fill="rgba(217, 114, 0, 1)" style="--darkreader-inline-fill:#ae5b00"/><path d="M298.32 676.93h85.76v37.16h-85.76z" stroke="rgba(217, 114, 0, 1)" style="--darkreader-inline-stroke:#ff9f34"/><path d="M1353.11 726.96h3.03v3.03h-3.03z" stroke="rgba(251, 214, 0, 1)" style="--darkreader-inline-stroke:#ffde1c"/><path d="M1384.16 311.37a98.8 98.8 0 1 0 197.6 0 98.8 98.8 0 1 0-197.6 0z" fill="rgba(217, 114, 0, 1)" style="--darkreader-inline-fill:#ae5b00"/><path d="M1733.12 1064.46h17.36v44.21h-17.36z" stroke="rgba(251, 214, 0, 1)" style="--darkreader-inline-stroke:#ffde1c"/><path d="M1810.82 152.87h91.59v91.59h-91.59zM729.78 568.84h86.74v99.86h-86.74z" fill="rgba(251, 214, 0, 1)" style="--darkreader-inline-fill:#c9ab00"/></g><defs><linearGradient x1="10.94%" y1="-19.44%" x2="89.06%" y2="119.44%" gradientUnits="userSpaceOnUse" id="b"><stop stop-color="#0e2a47" offset="0" style="--darkreader-inline-stopcolor:#0b2239"/><stop stop-color="rgba(5, 0, 34, 1)" offset=".35" style="--darkreader-inline-stopcolor:#04001b"/><stop stop-color="rgba(10, 0, 73, 1)" offset="1" style="--darkreader-inline-stopcolor:#08003a"/></linearGradient><mask id="a"><path fill="#fff" style="--darkreader-inline-fill:#181a1b" d="M0 0h1920v1080H0z"/></mask></defs></svg>
